<svg xmlns="http://www.w3.org/2000/svg" width="14.59" height="16" viewBox="0 0 14.59 16">
  <path id="copy" d="M-97.632,403a2.015,2.015,0,0,1-1.975-1.684h8.516a1,1,0,0,0,1-1v-8.105a1.008,1.008,0,0,0-.841-.988v-1.7h.523a2,2,0,0,1,2,2V401a2,2,0,0,1-2,2ZM-101,400.474a2,2,0,0,1-2-2V389a2,2,0,0,1,2-2h7.222a2,2,0,0,1,2,2v9.474a2,2,0,0,1-2,2Zm-.316-10.789v8.105a1,1,0,0,0,1,1h5.857a1,1,0,0,0,1-1v-8.105a1,1,0,0,0-1-1h-5.857A1,1,0,0,0-101.316,389.685Z" transform="translate(103 -387)" fill="#212121"/>
</svg>
