<svg xmlns="http://www.w3.org/2000/svg" width="17.325" height="19" viewBox="0 0 17.325 19">
  <defs>
    <style>
      .cls-1 {
        fill: #212121;
      }
    </style>
  </defs>
  <path id="copy" class="cls-1" d="M-97,406a2,2,0,0,1-2-2h10.329a1,1,0,0,0,1-1V393a1,1,0,0,0-1-1v-2h1a2,2,0,0,1,2,2v12a2,2,0,0,1-2,2Zm-4-3a2,2,0,0,1-2-2V389a2,2,0,0,1,2-2h9.326a2,2,0,0,1,2,2v12a2,2,0,0,1-2,2Zm0-13v10a1,1,0,0,0,1,1h7.33a1,1,0,0,0,1-1V390a1,1,0,0,0-1-1H-100A1,1,0,0,0-101,390Z" transform="translate(103 -387)"/>
</svg>
