<svg xmlns="http://www.w3.org/2000/svg" width="16.33" height="15.994" viewBox="0 0 16.33 15.994">
  <path id="report" d="M-87.518,405H-99.843a1.985,1.985,0,0,1-1.707-.958,1.985,1.985,0,0,1-.072-1.956l6.162-11.993A1.967,1.967,0,0,1-93.68,389a1.966,1.966,0,0,1,1.779,1.086l6.163,11.993a1.985,1.985,0,0,1-.072,1.956A1.986,1.986,0,0,1-87.518,405Zm-6.162-4.363a1.051,1.051,0,0,0-1.049,1.049v.2a1.051,1.051,0,0,0,1.049,1.049,1.05,1.05,0,0,0,1.048-1.049v-.2A1.05,1.05,0,0,0-93.68,400.635Zm0-8.036a1.05,1.05,0,0,0-1.049,1.048v4.791a1.051,1.051,0,0,0,1.049,1.049,1.05,1.05,0,0,0,1.048-1.049v-4.791A1.05,1.05,0,0,0-93.68,392.6Z" transform="translate(101.845 -389.005)" fill="#212121"/>
</svg>
