<svg xmlns="http://www.w3.org/2000/svg" width="19.716" height="17.964" viewBox="0 0 19.716 17.964">
  <defs>
    <style>
      .cls-1 {
        fill: #212121;
      }
    </style>
  </defs>
  <path id="report" class="cls-1" d="M-84.228,406.518h-15.71a1.981,1.981,0,0,1-1.726-.99,1.981,1.981,0,0,1-.016-1.99l7.854-13.964a1.977,1.977,0,0,1,1.743-1.019,1.977,1.977,0,0,1,1.743,1.019l7.855,13.964a1.982,1.982,0,0,1-.017,1.991A1.981,1.981,0,0,1-84.228,406.518Zm-7.855-4.761a1.254,1.254,0,0,0-1.253,1.253,1.254,1.254,0,0,0,1.253,1.253,1.254,1.254,0,0,0,1.253-1.253A1.254,1.254,0,0,0-92.083,401.757Zm0-8.769a1.254,1.254,0,0,0-1.253,1.253v5.011a1.254,1.254,0,0,0,1.253,1.253,1.254,1.254,0,0,0,1.253-1.253v-5.011A1.254,1.254,0,0,0-92.083,392.989Z" transform="translate(101.941 -388.554)"/>
</svg>
