<svg xmlns="http://www.w3.org/2000/svg" width="15.996" height="16" viewBox="0 0 15.996 16">
  <path id="search" d="M-88.448,402.752l-3.629-3.629a6.722,6.722,0,0,1-4.154,1.422,6.729,6.729,0,0,1-4.789-1.984,6.78,6.78,0,0,1,0-9.578A6.729,6.729,0,0,1-96.231,387a6.729,6.729,0,0,1,4.789,1.984,6.782,6.782,0,0,1,.561,8.942l3.629,3.629a.847.847,0,0,1,0,1.2.843.843,0,0,1-.6.248A.843.843,0,0,1-88.448,402.752Zm-11.374-12.57a5.085,5.085,0,0,0,0,7.183,5.044,5.044,0,0,0,3.592,1.488,5.042,5.042,0,0,0,3.591-1.488,5.043,5.043,0,0,0,1.489-3.592,5.041,5.041,0,0,0-1.489-3.591,5.041,5.041,0,0,0-3.591-1.489A5.043,5.043,0,0,0-99.823,390.182Z" transform="translate(103 -387)" fill="#212121"/>
</svg>
