<svg xmlns="http://www.w3.org/2000/svg" width="18.895" height="18.9" viewBox="0 0 18.895 18.9">
  <defs>
    <style>
      .cls-1 {
        fill: #212121;
      }
    </style>
  </defs>
  <path id="union2" data-name="union2" class="cls-1" d="M-85.811,405.607-90.1,401.32A7.941,7.941,0,0,1-95,403a7.943,7.943,0,0,1-5.656-2.343,8.009,8.009,0,0,1,0-11.314A7.944,7.944,0,0,1-95,387a7.95,7.95,0,0,1,5.657,2.343,8.014,8.014,0,0,1,.663,10.563l4.287,4.287a1,1,0,0,1,0,1.414,1,1,0,0,1-.707.293A1,1,0,0,1-85.811,405.607Zm-13.435-14.849a6.007,6.007,0,0,0,0,8.485A5.957,5.957,0,0,0-95,401a5.957,5.957,0,0,0,4.243-1.757A5.961,5.961,0,0,0-89,395a5.961,5.961,0,0,0-1.758-4.243A5.961,5.961,0,0,0-95,389,5.961,5.961,0,0,0-99.247,390.758Z" transform="translate(103 -387)"/>
</svg>
