<svg xmlns="http://www.w3.org/2000/svg" width="16" height="16" viewBox="0 0 16 16">
  <path id="close" d="M-88.321,403.116l-6.265-6.265-6.265,6.265a1.016,1.016,0,0,1-1.437,0,1.017,1.017,0,0,1,0-1.436l6.266-6.266-6.266-6.266a1.017,1.017,0,0,1,0-1.436,1.016,1.016,0,0,1,1.437,0l6.265,6.265,6.265-6.265a1.016,1.016,0,0,1,1.437,0,1.015,1.015,0,0,1,0,1.436l-6.266,6.266,6.266,6.266a1.015,1.015,0,0,1,0,1.436,1.013,1.013,0,0,1-.719.3A1.013,1.013,0,0,1-88.321,403.116Z" transform="translate(102.586 -387.414)" fill="#212121"/>
</svg>
